# xmcd CD database file
#
# Track frame offsets:
#	150
#	26206
#	52345
#	78049
#	103962
#	129613
#	147543
#	172111
#	205840
#	235399
#
# Disc length: 3498 seconds
#
# Revision: 0
# Processed by: cddbd v1.5.2PL0 Copyright (c) Steve Scherf et al.
# Submitted via: CDex 1.70beta2
#
DISCID=990da80a
DTITLE=Marcus Miller - Free
DYEAR=2007
DGENRE=Jazz
TTITLE0=01 Blast
TTITLE1=02 Funk Joint
TTITLE2=03 Free feat. Corinne Bailey Rae
TTITLE3=04 Strum
TTITLE4=05 Milky Way feat. Keb' Mo'
TTITLE5=06 Pluck (Interlude)
TTITLE6=07 When I Fall In Love
TTITLE7=08 Jean Pierre
TTITLE8=09 Higher Ground
TTITLE9=10 What Is Hip -
EXTD=YEAR: 2007
EXTT0=
EXTT1=
EXTT2=
EXTT3=
EXTT4=
EXTT5=
EXTT6=
EXTT7=
EXTT8=
EXTT9=
PLAYORDER=
